<svg xmlns="http://www.w3.org/2000/svg" viewBox="0 0 560 560"><defs><style>.cls-1{fill:#fff;}</style></defs><g id="Layer_2" data-name="Layer 2"><g id="Layer_1-2" data-name="Layer 1"><rect x="4" y="4" width="552" height="552" rx="46.84"/><path class="cls-1" d="M509.16,8A42.89,42.89,0,0,1,552,50.84V509.16A42.89,42.89,0,0,1,509.16,552H50.84A42.89,42.89,0,0,1,8,509.16V50.84A42.89,42.89,0,0,1,50.84,8H509.16m0-8H50.84A50.84,50.84,0,0,0,0,50.84V509.16A50.84,50.84,0,0,0,50.84,560H509.16A50.84,50.84,0,0,0,560,509.16V50.84A50.84,50.84,0,0,0,509.16,0Z"/><path class="cls-1" d="M280.21,434.59a186,186,0,0,1-69-13.33c-21.75-8.64-40.23-23.58-54.92-44.42A113.29,113.29,0,0,1,139.83,341c-3.71-13.73-5.6-29.33-5.6-46.38V125.41h71.6V269.58c0,22.08,3,40.73,8.87,55.43,6.13,15.32,14.94,26.79,26.18,34.08S265.25,370,280.21,370c14.37,0,27.34-3.61,38.54-10.75s20.19-18.61,26.33-33.87C351,310.74,354,292.12,354,270V125.41h71.81V294.59c0,26.15-4.44,48.63-13.18,66.83s-20.31,32.57-34.5,43a145.08,145.08,0,0,1-47,23.06A189.74,189.74,0,0,1,280.21,434.59Z"/><path d="M417.77,133.41V294.59c0,24.94-4.17,46.26-12.39,63.37-8.13,16.9-18.9,30.37-32,40a136.89,136.89,0,0,1-44.4,21.8,181.56,181.56,0,0,1-48.74,6.82,178.18,178.18,0,0,1-66-12.76c-20.56-8.17-37.35-21.78-51.34-41.61-13.67-19.37-20.6-45.49-20.6-77.63V133.41h55.6V269.58c0,23.11,3.18,42.76,9.44,58.4,6.76,16.89,16.6,29.61,29.25,37.82C249,373.89,263.68,378,280.21,378c15.92,0,30.33-4,42.83-12,12.77-8.13,22.68-20.79,29.47-37.63C358.78,312.77,362,293.15,362,270V133.41h55.81m16-16H346V270q0,31.74-8.3,52.35T314.45,352.5Q299.54,362,280.21,362q-20.16,0-35-9.61T222.13,322q-8.31-20.73-8.3-52.46V117.41h-87.6V294.59q0,53.51,23.53,86.86t58.5,47.25a193.3,193.3,0,0,0,71.95,13.89,196.69,196.69,0,0,0,53-7.41,152.07,152.07,0,0,0,49.58-24.32q23-16.91,37-46t14-70.3V117.41Z"/></g></g></svg>